<svg xmlns="http://www.w3.org/2000/svg" viewBox="0 0 113 40"><defs><style>.a{fill:#FFF;}</style></defs><path class="a" d="M52.37,0,41.62,29.48H33.06L26.19,9,19.27,29.48H10.79L0,0H8.81l6.45,20.29L22.31,0h7.92l7,20.29L43.73,0Z"/><polygon class="a" points="57.46 10.63 69.23 25.05 69.65 25.05 81.42 10.63 81.42 16.18 89.97 8.52 89.97 -0.04 80.82 -0.04 69.65 14.13 58.56 -0.04 49.16 -0.04 49.16 29.48 57.46 29.48 57.46 10.63"/><polygon class="a" points="81.42 28.46 81.42 29.48 89.97 29.48 89.97 20.83 81.42 28.46"/><polygon class="a" points="98.89 11.73 112.01 -0.04 101.3 -0.04 81.42 17.77 81.42 26.88 92.74 16.79 102.65 29.48 112.77 29.48 98.89 11.73"/><path class="a" d="M70.69,34.69H69.32v5.25H68.05V34.69H66.68v-1h4Z"/><path class="a" d="M74.75,34.69H72.5v1.48h2.12v1H72.5V38.9h2.34v1h-3.6V33.66h3.51Z"/><path class="a" d="M78,34.78a.61.61,0,0,0-.59-.31.65.65,0,0,0-.4.12.93.93,0,0,0-.24.42,3.26,3.26,0,0,0-.12.74c0,.31,0,.69,0,1.14s0,.86.05,1.15a3.35,3.35,0,0,0,.15.68.7.7,0,0,0,.26.33.78.78,0,0,0,.35.08.83.83,0,0,0,.32-.06.54.54,0,0,0,.25-.23,1.41,1.41,0,0,0,.16-.48,3.67,3.67,0,0,0,.07-.82h1.26a4.91,4.91,0,0,1-.08,1,2.23,2.23,0,0,1-.29.81,1.51,1.51,0,0,1-.61.53,2.27,2.27,0,0,1-1,.2,2.42,2.42,0,0,1-1.14-.23,1.65,1.65,0,0,1-.65-.66,3,3,0,0,1-.29-1q-.06-.6-.06-1.32t.06-1.32a3,3,0,0,1,.29-1,1.61,1.61,0,0,1,.65-.67,2.19,2.19,0,0,1,1.14-.25,2.3,2.3,0,0,1,1.07.22,1.56,1.56,0,0,1,.58.56,1.91,1.91,0,0,1,.24.73,6.57,6.57,0,0,1,0,.74H78.15A2.27,2.27,0,0,0,78,34.78Z"/><path class="a" d="M81.46,33.66v2.4h1.48v-2.4h1.27v6.28H82.94V37.15H81.46v2.79H80.19V33.66Z"/><path class="a" d="M88.08,38h0v-4.3h1.16v6.28H87.82l-1.55-4.4h0v4.4H85.09V33.66h1.46Z"/><path class="a" d="M90.07,35.48a3,3,0,0,1,.29-1,1.61,1.61,0,0,1,.65-.67,2.7,2.7,0,0,1,2.27,0,1.61,1.61,0,0,1,.65.67,3,3,0,0,1,.29,1q.06.6.06,1.32t-.06,1.32a3,3,0,0,1-.29,1,1.65,1.65,0,0,1-.65.66,2.92,2.92,0,0,1-2.27,0,1.65,1.65,0,0,1-.65-.66,3,3,0,0,1-.29-1Q90,37.52,90,36.8T90.07,35.48Zm1.23,2.4a3.75,3.75,0,0,0,.13.72.8.8,0,0,0,.26.4.74.74,0,0,0,.46.13A.73.73,0,0,0,92.6,39a.8.8,0,0,0,.26-.4,3.75,3.75,0,0,0,.13-.72q0-.45,0-1.08t0-1.08a3.75,3.75,0,0,0-.13-.72.83.83,0,0,0-.26-.41.79.79,0,0,0-.45-.12.81.81,0,0,0-.46.12.83.83,0,0,0-.26.41,3.75,3.75,0,0,0-.13.72q0,.45,0,1.08T91.3,37.88Z"/><path class="a" d="M95,33.66H96.3V38.9h2.24v1H95Z"/><path class="a" d="M99,35.48a2.83,2.83,0,0,1,.29-1,1.61,1.61,0,0,1,.65-.67,2.7,2.7,0,0,1,2.27,0,1.59,1.59,0,0,1,.64.67,2.83,2.83,0,0,1,.29,1,12.48,12.48,0,0,1,0,2.64,2.83,2.83,0,0,1-.29,1,1.63,1.63,0,0,1-.64.66,2.92,2.92,0,0,1-2.27,0,1.65,1.65,0,0,1-.65-.66,2.83,2.83,0,0,1-.29-1,12.48,12.48,0,0,1,0-2.64Zm1.23,2.4a3.16,3.16,0,0,0,.12.72.81.81,0,0,0,.27.4.84.84,0,0,0,.9,0,.75.75,0,0,0,.27-.4,3.16,3.16,0,0,0,.12-.72q0-.45,0-1.08t0-1.08a3.16,3.16,0,0,0-.12-.72.78.78,0,0,0-.27-.41.9.9,0,0,0-.9,0,.84.84,0,0,0-.27.41,3.16,3.16,0,0,0-.12.72q0,.45,0,1.08T100.27,37.88Z"/><path class="a" d="M106.75,35.16a1.26,1.26,0,0,0-.13-.34.76.76,0,0,0-.22-.25.56.56,0,0,0-.33-.1.68.68,0,0,0-.66.51,4.83,4.83,0,0,0-.21,1.69c0,.37,0,.71,0,1a3.33,3.33,0,0,0,.13.78,1.2,1.2,0,0,0,.26.49.6.6,0,0,0,.44.17.69.69,0,0,0,.26-.06.72.72,0,0,0,.25-.19.87.87,0,0,0,.2-.31,1.19,1.19,0,0,0,.08-.44v-.65H106v-.93h2v3.39h-.93v-.58h0a1.3,1.3,0,0,1-.55.52,1.79,1.79,0,0,1-.77.16,1.84,1.84,0,0,1-.94-.21,1.35,1.35,0,0,1-.58-.62,3.22,3.22,0,0,1-.27-1,12.39,12.39,0,0,1-.07-1.44,8.16,8.16,0,0,1,.1-1.39,2.94,2.94,0,0,1,.34-1,1.58,1.58,0,0,1,.66-.6,2.16,2.16,0,0,1,1-.21,1.87,1.87,0,0,1,1.49.52,2.11,2.11,0,0,1,.46,1.47h-1.21A2.2,2.2,0,0,0,106.75,35.16Z"/><path class="a" d="M110.73,36.08h0l.88-2.42H113l-1.63,3.81v2.47H110.1V37.47l-1.62-3.81h1.42Z"/></svg>