<?xml version="1.0" encoding="utf-8"?>
<!-- Generator: Adobe Illustrator 24.0.1, SVG Export Plug-In . SVG Version: 6.00 Build 0)  -->
<svg version="1.1" id="Layer_1" xmlns="http://www.w3.org/2000/svg" xmlns:xlink="http://www.w3.org/1999/xlink" x="0px" y="0px"
	 viewBox="0 0 48 48" style="enable-background:new 0 0 48 48;" xml:space="preserve">
<g>
	<path d="M42.1,23.6L41,22.9l-1.1-5.5l-0.1-0.3l-0.1-0.4l0,0c-0.5-2.1-2.6-3.8-4.8-3.8h-3V12c0-2.2-1.8-4-4-4H8c-2.2,0-4,1.8-4,4v2
		h2v-2c0-1.1,0.9-2,2-2h20c1.1,0,2,0.9,2,2v22H17.9c-0.5-2.3-2.5-4-4.9-4s-4.4,1.7-4.9,4H8c-1.1,0-2-0.9-2-2v-2H4v2c0,2.2,1.8,4,4,4
		h0.1c0.5,2.3,2.5,4,4.9,4s4.4-1.7,4.9-4H30h0.1c0.5,2.3,2.5,4,4.9,4s4.4-1.7,4.9-4H40c2.2,0,4-1.8,4-4v-5
		C44,25.6,43.2,24.3,42.1,23.6z M13,38c-1.7,0-3-1.3-3-3s1.3-3,3-3s3,1.3,3,3S14.7,38,13,38z M36,15.1c0.9,0.4,1.6,1.2,1.8,2.1l0,0
		L39,23h-3V15.1z M35,38c-1.7,0-3-1.3-3-3s1.3-3,3-3s3,1.3,3,3S36.7,38,35,38z M42,32c0,1.1-0.9,2-2,2h-0.1c-0.5-2.3-2.5-4-4.9-4
		c-1.1,0-2.2,0.4-3,1V14.9h2V24c0,0.6,0.4,1,1,1h5.5l1,0.6C41.8,26,42,26.5,42,27V32z"/>
	<rect x="2" y="16" width="8" height="2"/>
	<rect y="21" width="12" height="2"/>
	<rect x="2" y="26" width="8" height="2"/>
</g>
</svg>
