<?xml version="1.0" encoding="utf-8"?>
<!-- Generator: Adobe Illustrator 23.0.4, SVG Export Plug-In . SVG Version: 6.00 Build 0)  -->
<svg version="1.1" id="Layer_1" xmlns="http://www.w3.org/2000/svg" xmlns:xlink="http://www.w3.org/1999/xlink" x="0px" y="0px"
	 viewBox="0 0 48 48" style="enable-background:new 0 0 48 48;" xml:space="preserve">
<g>
	<g>
		<path d="M24,8c8.8,0,16,7.2,16,16s-7.2,16-16,16S8,32.8,8,24S15.2,8,24,8 M24,6C14.1,6,6,14.1,6,24s8.1,18,18,18s18-8.1,18-18
			S33.9,6,24,6L24,6z"/>
	</g>
	<path d="M18,16c1.1,0,2,0.9,2,2s-0.9,2-2,2s-2-0.9-2-2S16.9,16,18,16 M18,14c-2.2,0-4,1.8-4,4s1.8,4,4,4s4-1.8,4-4S20.2,14,18,14
		L18,14z"/>
	<polygon points="31.1,15.5 15.5,31.1 16.9,32.5 32.5,16.9 31.1,15.5 	"/>
	<path d="M30,28c1.1,0,2,0.9,2,2s-0.9,2-2,2s-2-0.9-2-2S28.9,28,30,28 M30,26c-2.2,0-4,1.8-4,4s1.8,4,4,4s4-1.8,4-4S32.2,26,30,26
		L30,26z"/>
</g>
</svg>
