<?xml version="1.0" encoding="utf-8"?>
<!-- Generator: Adobe Illustrator 23.0.4, SVG Export Plug-In . SVG Version: 6.00 Build 0)  -->
<svg version="1.1" id="Layer_1" xmlns="http://www.w3.org/2000/svg" xmlns:xlink="http://www.w3.org/1999/xlink" x="0px" y="0px"
	 viewBox="0 0 48 48" style="enable-background:new 0 0 48 48;" xml:space="preserve">
<g>
	<g>
		<path d="M24,40c-8.8,0-16-7.2-16-16S15.2,8,24,8s16,7.2,16,16S32.8,40,24,40 M24,42c9.9,0,18-8.1,18-18S33.9,6,24,6S6,14.1,6,24
			S14.1,42,24,42L24,42z"/>
	</g>
</g>
<path d="M27.3,18.2 M32.3,17.3l-9.9,9.9l-4.9-4.9L16,23.6l6.4,6.4l11.3-11.3l0,0"/>
</svg>
